<svg width="70" height="68" viewBox="0 0 70 68" fill="none" xmlns="http://www.w3.org/2000/svg">
<g clip-path="url(#clip0)">
<path fill-rule="evenodd" clip-rule="evenodd" d="M70 34C70 52.7652 54.3171 68 35 68C15.6829 68 -1.90735e-06 52.7652 -1.90735e-06 34C-1.90735e-06 15.2348 15.6829 0 35 0C54.3171 0 70 15.2348 70 34ZM67.0833 34C67.0833 51.2012 52.7071 65.1667 35 65.1667C17.2929 65.1667 2.91666 51.2012 2.91666 34C2.91666 16.7988 17.2929 2.83333 35 2.83333C52.7071 2.83333 67.0833 16.7988 67.0833 34ZM50.3038 25.5L35 43.7467L19.6496 25.5L17.5 27.421L35 48.1667L52.5 27.3842L50.3038 25.5V25.5Z" fill="white"/>
</g>
<defs>
<clipPath id="clip0">
<rect x="70" width="68" height="70" transform="rotate(90 70 0)" fill="white"/>
</clipPath>
</defs>
</svg>
