<svg width="88" height="88" viewBox="0 0 88 88" fill="none" xmlns="http://www.w3.org/2000/svg">
<g clip-path="url(#clip0)">
<path d="M45.4959 47.7841C49.7419 47.5567 55.9606 46.3614 60.8226 43.6481C64.3499 38.2287 66.6819 33.8067 68.9773 28.9814C65.8239 29.2161 62.1866 28.9484 58.9453 28.0391C62.8613 27.3681 67.7746 25.9674 71.4926 23.5804C76.0943 17.0391 79.5043 6.49738 80.6666 0.00738171C70.1286 -0.168618 60.2579 3.27072 53.5846 7.57538C51.3333 10.142 49.3826 16.335 48.9206 19.613C47.9049 17.2444 47.1643 13.453 48.0333 10.2924C42.6873 13.1047 38.0123 16.3167 32.7176 20.779C30.0776 26.3817 29.6596 32.8424 29.9016 36.4577C28.4679 34.4301 26.5466 30.4811 26.8143 26.158C17.3176 35.3394 10.7653 47.3661 16.9803 60.3461C23.8699 53.2291 31.7899 46.4751 36.6116 43.3364C25.4796 56.0744 15.1029 72.8421 7.33325 88.0001L16.5146 85.1181C20.4893 77.8617 24.0643 71.6101 27.2689 67.1331C39.1086 68.6841 49.6209 59.1837 56.7049 49.5514C53.8816 50.2481 48.4696 49.3387 45.4959 47.7841V47.7841Z" fill="#F8F8F8"/>
</g>
<defs>
<clipPath id="clip0">
<rect width="88" height="88" fill="white"/>
</clipPath>
</defs>
</svg>
