<svg width="89" height="119" viewBox="0 0 89 119" fill="none" xmlns="http://www.w3.org/2000/svg">
<path d="M34.7424 81.1459L34.6961 81.0994L27.094 74.3837L34.6961 67.668C35.5305 66.9244 35.6232 65.6231 34.8815 64.7866L34.8352 64.7401L30.8023 60.4179C30.0143 59.5813 28.7164 59.5581 27.9284 60.3249L14.5552 72.8965C13.6977 73.7098 13.6977 75.0808 14.5552 75.8709L27.9284 88.4425C28.2992 88.7911 28.8091 89.0002 29.319 89.0002C29.8753 89.0002 30.4315 88.7678 30.8023 88.3495L34.8352 84.0273C35.6 83.214 35.5536 81.9127 34.7424 81.1459V81.1459ZM85.732 22.7729L66.2865 3.27651C64.2005 1.18512 61.3729 0 58.4294 0H11.125C4.98307 0.0232377 0 5.01933 0 11.1773V107.846C0 114.004 4.98307 119 11.125 119H77.875C84.0169 119 89 114.004 89 107.846V30.6737C89 27.7225 87.818 24.8643 85.732 22.7729V22.7729ZM59.3333 12.0836L76.9711 29.7674H59.3333V12.0836ZM77.875 107.846H11.125V11.1773H48.2083V35.3445C48.2083 38.4351 50.6883 40.9215 53.7708 40.9215H77.875V107.846ZM48.5792 49.7518C47.4898 49.4265 46.3773 50.0539 46.0529 51.1461L33.375 94.8561C33.0505 95.9483 33.6763 97.0869 34.7656 97.389L40.4208 99.0389C41.5102 99.3642 42.6458 98.7135 42.9471 97.6446L55.625 53.9113C55.9495 52.8192 55.3237 51.6805 54.2344 51.3784L48.5792 49.7518ZM54.2576 67.6216L54.3039 67.668L61.906 74.3837L54.3039 81.0994C53.4695 81.843 53.3768 83.1443 54.1185 83.9809L54.1648 84.0273L58.1977 88.3495C58.9625 89.1629 60.2604 89.2093 61.0716 88.4425L74.4448 75.8709C75.3023 75.0576 75.3023 73.6866 74.4448 72.8965L61.0716 60.3249C60.2604 59.5581 58.9625 59.5813 58.1977 60.4179L54.1648 64.7401C53.4 65.5534 53.4464 66.8547 54.2576 67.6216V67.6216Z" fill="#797979"/>
</svg>
