<svg width="21" height="21" viewBox="0 0 21 21" fill="none" xmlns="http://www.w3.org/2000/svg">
<path d="M16.625 0H4.37499C1.95913 0 0 1.95913 0 4.37499V16.625C0 19.0409 1.95913 21 4.37499 21H16.625C19.0417 21 21 19.0409 21 16.625V4.37499C21 1.95913 19.0417 0 16.625 0ZM12.7172 17.1412C12.3629 17.2095 12.25 16.9916 12.25 16.8052V14.8846C12.25 14.231 12.0208 13.8058 11.7688 13.5887C13.328 13.4155 14.966 12.8231 14.966 10.1351C14.966 9.37038 14.693 8.74563 14.2459 8.25651C14.3176 8.07975 14.5574 7.36749 14.1767 6.40413C14.1767 6.40413 13.5896 6.216 12.2535 7.12164C11.6935 6.96414 11.095 6.888 10.5 6.88449C9.90501 6.88713 9.30651 6.96414 8.74737 7.11987C7.41039 6.21426 6.82239 6.40239 6.82239 6.40239C6.44262 7.36662 6.68238 8.07801 6.75501 8.25564C6.30699 8.74563 6.03399 9.36951 6.03399 10.1342C6.03399 12.8152 7.66764 13.4164 9.22338 13.594C9.02301 13.769 8.84187 14.077 8.77887 14.5303C8.379 14.7088 7.36662 15.0176 6.74187 13.9475C6.74187 13.9475 6.37176 13.2755 5.66826 13.2256C5.66826 13.2256 4.98576 13.2169 5.62014 13.6517C5.62014 13.6517 6.0795 13.867 6.39801 14.6755C6.39801 14.6755 6.80313 15.925 8.75001 15.5015V16.8044C8.75001 16.989 8.63712 17.206 8.28801 17.1412C5.50551 16.2164 3.5 13.5922 3.5 10.5C3.5 6.63339 6.63426 3.5 10.5 3.5C14.3657 3.5 17.5 6.63339 17.5 10.5C17.5 13.5914 15.4971 16.2146 12.7172 17.1412Z" fill="white"/>
</svg>
