<svg width="576" height="512" viewBox="0 0 576 512" fill="none" xmlns="http://www.w3.org/2000/svg">
<path d="M552 64H112C91.142 64 73.357 77.377 66.752 96H24C10.745 96 0 106.745 0 120V392C0 422.928 25.072 448 56 448H552C565.255 448 576 437.255 576 424V88C576 74.745 565.255 64 552 64ZM48 392V144H64V392C64 396.411 60.411 400 56 400C51.589 400 48 396.411 48 392ZM528 400H111.422C111.796 397.386 112 394.717 112 392V112H528V400ZM172 280H308C314.627 280 320 274.627 320 268V172C320 165.373 314.627 160 308 160H172C165.373 160 160 165.373 160 172V268C160 274.627 165.373 280 172 280ZM200 200H280V240H200V200ZM160 340V316C160 309.373 165.373 304 172 304H308C314.627 304 320 309.373 320 316V340C320 346.627 314.627 352 308 352H172C165.373 352 160 346.627 160 340ZM352 340V316C352 309.373 357.373 304 364 304H468C474.627 304 480 309.373 480 316V340C480 346.627 474.627 352 468 352H364C357.373 352 352 346.627 352 340ZM352 196V172C352 165.373 357.373 160 364 160H468C474.627 160 480 165.373 480 172V196C480 202.627 474.627 208 468 208H364C357.373 208 352 202.627 352 196ZM352 268V244C352 237.373 357.373 232 364 232H468C474.627 232 480 237.373 480 244V268C480 274.627 474.627 280 468 280H364C357.373 280 352 274.627 352 268Z" fill="white"/>
</svg>
