<svg width="21" height="21" viewBox="0 0 21 21" fill="none" xmlns="http://www.w3.org/2000/svg">
<path d="M8.23025 15.0351C8.60738 14.1383 8.1865 13.1049 7.28875 12.7277L5.747 12.0794C6.03662 11.97 6.31925 11.9201 6.60625 11.9192C7.9345 11.9192 9.02563 13.0007 9.03788 14.329C9.05013 15.6747 7.973 16.772 6.629 16.7842C5.61488 16.7886 4.75825 16.1858 4.37938 15.3274L5.922 15.9757C6.82063 16.3537 7.85313 15.932 8.23025 15.0351V15.0351ZM16.625 0H4.375C1.95913 0 0 1.95913 0 4.375V9.66263L4.88688 11.718C5.40838 11.3768 6.0095 11.1939 6.67713 11.2079L9.317 7.5145C9.359 5.29113 11.1737 3.5 13.4067 3.5C15.666 3.5 17.5 5.33225 17.5 7.59238C17.5 9.85075 15.6642 11.7075 13.3595 11.683L9.75887 14.3666L9.751 14.3701C9.7405 16.0869 8.35713 17.4834 6.63513 17.5C5.08025 17.5131 3.80537 16.4071 3.52012 14.9669L0 13.4864V16.625C0 19.0409 1.95913 21 4.375 21H16.625C19.0418 21 21 19.0409 21 16.625V4.375C21 1.95913 19.0418 0 16.625 0ZM13.4067 10.3749C11.8737 10.3749 10.6251 9.12625 10.6251 7.59238C10.6251 6.0585 11.8737 4.81075 13.4067 4.81075C14.9415 4.81075 16.1884 6.0585 16.1884 7.59238C16.1884 9.12625 14.9415 10.3749 13.4067 10.3749V10.3749ZM13.4067 9.69325C14.5661 9.69325 15.5068 8.75088 15.5068 7.59238C15.5068 6.43475 14.5661 5.4915 13.4067 5.4915C12.2482 5.4915 11.3059 6.43475 11.3059 7.59238C11.3059 8.75088 12.2482 9.69325 13.4067 9.69325V9.69325Z" fill="white"/>
</svg>
